<svg width="102" height="101" viewBox="0 0 102 101" fill="none" xmlns="http://www.w3.org/2000/svg">
<path d="M31.4438 10.6675C34.6001 6.15481 38.4202 2.44062 42.8854 0C36.2304 1.06213 30.0041 3.4057 24.4685 6.76917C26.7492 8.27357 29.0785 9.57284 31.4438 10.6675Z" fill="#FEC502"/>
<path d="M70.6212 10.779C73.0478 9.6922 75.4433 8.40001 77.795 6.90295C72.7859 3.82489 67.2046 1.58441 61.2473 0.377741C64.7846 2.81417 67.9476 6.47825 70.6212 10.779Z" fill="#FEC502"/>
<path d="M23.2436 28.4971C24.5518 23.9629 26.2435 19.6766 28.3054 15.8082C28.5374 15.3727 28.7746 14.9417 29.0168 14.516C26.0963 13.127 23.2301 11.4513 20.4393 9.48732C15.3445 13.2876 10.9835 18.0138 7.60646 23.4157C13 25.4799 18.1869 27.1722 23.2436 28.4971Z" fill="#FEC502"/>
<path d="M78.1773 28.3114C83.3587 26.9668 88.7088 25.264 94.3033 23.2017C90.995 17.9673 86.7598 13.3749 81.8278 9.65416C78.9029 11.6399 75.9034 13.33 72.8526 14.7227C74.9556 18.7999 76.7563 23.4018 78.1773 28.3114Z" fill="#FEC502"/>
<path d="M73.9891 29.3284C66.8289 30.9451 59.9612 31.8556 53.1753 32.0657V19.5418C58.4444 19.3172 63.7073 18.2559 68.8559 16.3667C70.8675 20.2068 72.6091 24.6001 73.9891 29.3284Z" fill="#FEC502"/>
<path d="M80.2094 69.0728C85.3618 70.4054 90.6996 72.0905 96.2999 74.1363C98.5871 69.8005 100.267 65.0961 101.228 60.1357C100.436 59.8988 98.7481 59.4813 96.7472 58.9866L96.746 58.9863C95.5289 58.6854 94.196 58.3558 92.8792 58.021C94.2081 52.9969 93.9488 48.0545 93.5457 43.7127C93.1595 39.5519 92.6353 35.1531 90.1557 29.4458C86.465 30.6809 82.8606 31.7587 79.3211 32.6775C80.1638 36.2594 80.8058 39.9634 81.2196 43.7127C82.1493 52.1353 81.9382 60.8818 80.2094 69.0728Z" fill="#FEC502"/>
<path d="M68.8767 85.569C70.5089 83.1835 71.8866 80.5975 73.0294 77.8576C73.7585 76.1095 74.3914 74.299 74.9326 72.4394C67.3399 70.7335 60.1868 69.8595 53.1753 69.764V81.3037C58.1771 81.6896 63.2879 83.1221 68.8767 85.569Z" fill="#FEC502"/>
<path d="M53.1753 85.8316C57.1571 86.1823 61.3329 87.2964 66.0067 89.2507C62.6055 93.0832 58.3655 96.203 53.1753 98.35V85.8316Z" fill="#FEC502"/>
<path d="M32.5654 85.5454C38.1851 82.955 43.4594 81.4708 48.8692 81.2316V69.8033C41.658 70.0334 34.4931 71.0874 27.0438 72.9344C27.9561 76.0717 29.0962 79.0509 30.4688 81.8055C31.1172 83.1069 31.816 84.3553 32.5654 85.5454Z" fill="#FEC502"/>
<path d="M26.6131 83.7194C27.2568 85.0111 27.9505 86.2637 28.6951 87.4706C26.4828 88.6466 23.4951 90.322 21.1238 91.8031C15.5129 88.0815 12.3125 84.4122 8.55461 78.8332C13.5094 76.9463 18.2598 75.3462 22.8812 74.0395C23.8651 77.4421 25.1053 80.6936 26.6131 83.7194Z" fill="#FEC502"/>
<path d="M31.2844 91.2094C29.4036 92.1939 27.447 93.3127 25.393 94.5679C30.6139 97.5919 36.4202 99.7201 42.6008 100.742C38.1301 98.4618 34.3704 95.1799 31.2844 91.2094Z" fill="#FEC502"/>
<path d="M48.8692 85.7492C44.4847 85.9717 40.0895 87.1382 35.2511 89.2853C38.8707 93.7002 43.3955 96.9697 48.8692 98.6609V85.7492Z" fill="#FEC502"/>
<path d="M76.6126 94.5905C74.321 93.2763 72.1521 92.1163 70.0839 91.105C66.7683 95.096 62.6703 98.4786 57.6997 101C64.5174 100.113 70.9131 97.885 76.6126 94.5905Z" fill="#FEC502"/>
<path d="M72.8167 87.4197C74.6928 88.3572 76.9271 89.6795 79.0526 90.9374C79.5868 91.2536 80.1142 91.5657 80.6272 91.8665C86.4956 87.9795 90.1482 83.9985 93.9777 78.0953C88.7958 76.2252 83.8664 74.6822 79.1215 73.4533C78.5255 75.5256 77.8222 77.5494 77.0048 79.5092C75.8452 82.2895 74.4548 84.9421 72.8167 87.4197Z" fill="#FEC502"/>
<path d="M53.1753 65.2508C60.5633 65.3468 68.0573 66.2671 75.9511 68.0425C76.1244 67.3492 76.2831 66.6478 76.4275 65.9381C77.6428 58.929 77.7444 51.4771 76.9393 44.1833C76.5446 40.6071 75.9339 37.0876 75.1374 33.696C72.116 34.3819 69.1369 34.9482 66.1864 35.394C67.5727 43.2747 67.854 47.8973 66.6273 55.9527L66.5494 56.4644L66.0342 56.4059C63.6434 56.1342 62.4169 56.1679 60.2325 56.4061L59.6359 56.4712V36.1894C57.4743 36.3865 55.3227 36.517 53.1753 36.5805V65.2508Z" fill="#FEC502"/>
<path fill-rule="evenodd" clip-rule="evenodd" d="M26.2868 33.9538C25.1475 38.9979 24.4769 44.3116 24.3095 49.6556C24.1075 56.1097 24.6414 62.5497 25.9392 68.5584C32.3693 66.9635 38.6392 65.9277 44.9342 65.4865C46.1727 65.3432 47.4759 65.2015 48.8692 65.0574V36.618C41.8911 36.5321 34.949 35.7339 27.8486 34.2274C27.3401 34.1391 26.8202 34.0479 26.2868 33.9538ZM33.845 46.6529C33.5446 50.4592 33.4337 54.1706 34.4943 58.1481L35.0196 58.001C35.6948 57.8119 36.2026 57.6767 36.8671 57.5901C37.5359 57.503 38.3786 57.4635 39.7104 57.4837L40.2568 57.4919V46.6579L39.6432 46.7444C37.5833 47.0348 35.8857 46.9822 33.845 46.6529Z" fill="#FEC502"/>
<path d="M19.8542 52.1007C19.9133 52.1014 19.9619 52.1495 19.9618 52.2084C19.9561 57.5309 20.4309 62.8513 21.4195 67.95C21.5299 68.538 21.6481 69.1107 21.7729 69.6627C16.7195 71.0863 11.5455 72.8428 6.16419 74.9152C5.02745 72.8481 4.02989 70.6938 3.18424 68.465C2.61731 66.7653 2.15697 65.0367 1.70801 63.144C1.68547 63.049 1.76526 62.9609 1.86224 62.9738C2.38443 63.0435 2.8646 63.1131 3.31828 63.1788C5.61356 63.5116 7.22956 63.7458 10.1782 63.3894L10.7538 63.3198L10.6417 62.7522C10.1887 60.4592 10.0404 59.2054 10.115 56.9644L10.1333 56.4173L9.5849 56.4093C6.09788 56.3589 4.02858 56.1558 0.455993 55.4392C0.374043 55.4228 0.307791 55.3603 0.289676 55.2789C0.00761422 54.0108 -0.0640087 52.1214 0.0554017 49.8564C0.188656 47.3318 0.555301 44.4003 1.09029 41.4629C1.62527 38.5258 2.32663 35.5934 3.12576 33.0671C3.86444 30.7321 4.6754 28.7808 5.49594 27.4914L6.11977 27.68C11.6112 29.7769 16.9195 31.5067 22.1179 32.8676C21.4617 35.7491 20.9531 38.7044 20.595 41.6938C17.3394 40.9117 15.4285 40.3379 12.4531 39.2507L11.9245 39.0575L11.7549 39.5933C10.3671 43.9765 9.92421 46.5155 10.1153 51.0595L10.1347 51.5199L10.5935 51.5709C13.6485 51.9104 15.7552 52.049 19.8542 52.1007Z" fill="#FEC502"/>
<path d="M48.8692 32.1048C41.7957 32.0138 34.7297 31.1565 27.4309 29.5168C28.6548 25.3139 30.221 21.3657 32.1072 17.8265C32.3981 17.2803 32.6962 16.7452 33.001 16.2211C38.191 18.2 43.5181 19.3028 48.8692 19.5386V32.1048Z" fill="#FEC502"/>
<path d="M53.1753 15.0246C57.6621 14.815 62.1463 13.9384 66.5536 12.3988C62.4251 5.98824 57.7517 2.24257 53.1753 1.58887V15.0246Z" fill="#FEC502"/>
<path d="M48.8692 2.09908V15.0207C44.3777 14.8022 39.9076 13.9114 35.5338 12.3443C39.2368 7.30692 43.7248 3.71865 48.8692 2.09908Z" fill="#FEC502"/>
<path d="M96.0393 57.0982C95.7324 57.0406 95.3652 56.9716 94.6387 56.8371C94.9757 54.8232 95.1668 52.835 95.2444 50.9032L102 51.6524C101.973 54.1757 101.748 56.3919 101.346 58.0684C97.1676 57.3102 96.7769 57.2368 96.0406 57.0985L96.0393 57.0982Z" fill="#FEC502"/>
<path d="M101.958 48.9616L95.282 48.2212C95.1677 38.4139 92.3575 30.5514 91.5168 29.0579C92.8498 28.57 93.3942 28.3531 93.801 28.191C94.3796 27.9605 94.6802 27.8407 96.5765 27.2098C99.9914 33.2452 101.671 41.8822 101.958 48.9616Z" fill="#FEC502"/>
</svg>
